<?xml version="1.0" encoding="UTF-8" standalone="no"?>
<!DOCTYPE svg PUBLIC "-//W3C//DTD SVG 1.1//EN" "http://www.w3.org/Graphics/SVG/1.1/DTD/svg11.dtd">
<svg width="100%" height="100%" viewBox="0 0 306 254" version="1.1" xmlns="http://www.w3.org/2000/svg" xmlns:xlink="http://www.w3.org/1999/xlink" xml:space="preserve" xmlns:serif="http://www.serif.com/" style="fill-rule:evenodd;clip-rule:evenodd;stroke-linejoin:round;stroke-miterlimit:2;">
    <g transform="matrix(1,0,0,1,-138.51,-243.99)">
        <g>
            <g>
                <path d="M369.63,306.29C370.19,307.78 370.66,308.92 370.87,310.52C370.93,310.98 370.7,311.69 370.87,312.26C371.54,314.56 376.37,314.59 375.72,318.59C375.51,319.82 374.17,320.45 373.73,321.33C373.2,322.4 372.22,325.04 372.24,326.8C372.25,327.64 372.75,328.45 372.86,329.16C373.02,330.19 372.8,331.19 372.99,332.14C373.17,333.06 373.78,333.88 373.98,334.75C374.11,335.31 374,335.88 374.11,336.36C374.48,338.05 375.32,340.13 376.47,340.95C376.98,341.32 377.86,341.38 378.46,341.7C379.86,342.44 381.26,343.91 383.18,344.31C384.03,344.49 384.99,344.24 385.91,344.44C386.98,344.67 389.72,346.42 390.13,347.55C390.69,349.06 390.07,350.93 390.25,352.77C391.49,353.63 392.84,353.71 393.97,354.51C394.62,354.97 395.13,355.64 395.84,356.37C396.37,356.93 397.32,357.58 397.58,358.23C397.96,359.2 397.55,360.48 397.95,361.59C398.24,362.41 399.39,362.76 399.81,363.57C402.13,363.9 403.54,365.1 405.16,366.68C405.98,367.48 407.22,368.6 407.65,369.66C408.54,371.86 408.53,377.48 408.14,380.96C407.78,384.16 405.98,386.02 403.04,386.55C403.52,389.5 402.66,392.4 401.67,394.63C398.62,395.45 398.11,399.12 393.85,398.36C393.03,399.8 391.88,402.32 389.99,402.7C388.05,403.1 385.78,402.36 383.91,402.09C382.91,402.47 383.01,403.27 381.92,403.58C380.91,403.87 379.64,403.25 378.69,403.7C377.72,404.15 377.82,405.63 377.45,406.68C377.2,407.38 376.16,408.34 376.33,409.29C376.48,410.15 377.64,410.08 378.32,411.03C378.53,411.33 378.55,411.89 378.81,412.39C379.46,413.63 380.82,415 381.05,416.25C381.3,417.61 381.05,419.64 381.05,421.22C381.05,422.67 381.39,424.7 380.92,426.07C380.32,427.84 377.53,428.54 376.82,430.54C376.76,433.02 377.55,434.93 376.82,436.62C376.45,437.5 374.89,437.93 373.59,438.48C372.69,438.86 371.49,439.68 370.86,439.85C370.11,440.04 369.09,439.89 368.5,440.1C367.7,440.38 366.87,441.65 366.88,442.34C366.9,443.26 368.18,443.98 368.37,444.95C368.62,446.15 368.08,447.07 367.87,448.06C367.67,449 367.81,449.81 367,450.42C365.55,451.11 363.16,450.98 361.53,450.55C360.81,448.99 359.99,447.53 358.42,446.82C358.2,443.4 354.13,443.83 353.58,440.73C332.97,440.78 323.08,440.66 284.18,440.52C286.08,442.8 288.04,445.02 290.04,447.19C310.06,447.48 336.08,447.54 349.99,447.51C350.63,448.1 351.25,448.56 351.77,448.9L351.92,451.31L355.06,452.73C355.14,452.87 355.24,453.09 355.38,453.39L356.72,456.29L359.81,457.1C360.54,457.29 362.28,457.68 364.36,457.68C366.1,457.68 368.08,457.41 369.93,456.53L370.55,456.24L371.1,455.83C373.98,453.66 374.36,450.72 374.5,449.61L374.52,449.48C374.54,449.41 374.57,449.33 374.59,449.26C374.85,448.43 375.28,447.05 375.23,445.3C375.36,445.23 375.48,445.16 375.6,445.09C375.82,444.97 376.15,444.78 376.26,444.73C376.45,444.65 376.66,444.57 376.86,444.49C378.54,443.83 381.67,442.6 383.06,439.3C384.08,436.91 383.99,434.73 383.81,433.02C385.02,432.05 386.56,430.58 387.35,428.26C388.11,426.02 387.98,423.8 387.88,422.17C387.86,421.84 387.84,421.52 387.84,421.23C387.84,420.81 387.87,420.36 387.89,419.9C387.96,418.41 388.04,416.71 387.73,415.02C387.31,412.78 386.14,411.12 385.29,409.92C385.23,409.84 385.16,409.73 385.09,409.63C385.3,409.53 385.5,409.43 385.68,409.33C387.33,409.61 389.29,409.79 391.35,409.36C394.43,408.73 396.48,406.75 397.84,404.88C400.72,404.11 402.56,402.35 403.54,401.41C403.65,401.3 403.79,401.17 403.91,401.06L406.58,400.34L407.89,397.37C408.86,395.18 409.49,393.03 409.78,390.95C412.63,388.89 414.45,385.69 414.89,381.72C414.93,381.33 415.94,372.07 413.94,367.11C413.01,364.83 411.29,363.17 410.15,362.07L409.91,361.84C408.46,360.42 406.77,358.9 404.45,357.89C404.36,357.24 404.2,356.53 403.91,355.78C403.14,353.8 401.76,352.57 400.93,351.84C400.86,351.77 400.78,351.71 400.72,351.65C400.57,351.49 400.43,351.34 400.3,351.19C399.71,350.53 398.96,349.72 397.92,348.98C397.66,348.8 397.4,348.63 397.15,348.48C397.1,347.47 396.93,346.35 396.5,345.19C394.97,341.06 389.68,338.3 387.32,337.8C386.2,337.56 385.2,337.56 384.53,337.58C384.3,337.44 384.01,337.23 383.8,337.08C383.19,336.65 382.49,336.16 381.63,335.7C381.37,335.56 381.11,335.44 380.86,335.34C380.85,335.33 380.85,335.33 380.84,335.32C380.83,334.82 380.79,334.06 380.59,333.19C380.35,332.16 379.97,331.33 379.71,330.76C379.73,330.12 379.75,329.18 379.57,328.08C379.46,327.39 379.28,326.8 379.12,326.34C379.22,325.92 379.4,325.39 379.56,324.94C380.47,324.03 381.97,322.36 382.42,319.68C383.38,313.78 379.71,310.6 377.53,309.13C377.21,307.16 376.64,305.65 376.14,304.31L374.37,299.6L369.77,299.51C340.33,298.93 301.68,298.32 269.9,297.9C264.86,299.91 259.89,302.15 255,304.61C297.12,304.99 327,305.45 369.63,306.29Z" style="fill:rgb(0,51,161);fill-rule:nonzero;"/>
            </g>
            <g>
                <path d="M272.25,311.48L272.25,338.87C273.3,339.12 274.32,339.39 275.3,339.71C276.3,340.03 277.25,340.39 278.18,340.77L278.18,311.48L272.25,311.48Z" style="fill:rgb(0,51,161);fill-rule:nonzero;"/>
                <path d="M258.52,311.47L258.52,337.3C260.58,337.33 262.56,337.43 264.45,337.6L264.45,311.47L258.52,311.47Z" style="fill:rgb(0,51,161);fill-rule:nonzero;"/>
                <path d="M172.91,352.22L172.91,320.75C172.91,319.11 171.58,317.79 169.95,317.79C168.32,317.79 166.99,319.12 166.99,320.75L166.99,355.19C166.99,356.83 168.32,358.15 169.95,358.15L185.3,358.15L185.3,352.22L172.91,352.22Z" style="fill:rgb(0,51,161);fill-rule:nonzero;"/>
                <path d="M153.41,365.95L153.41,354.87C153.41,353.23 152.08,351.91 150.45,351.91C148.81,351.91 147.49,353.24 147.49,354.87L147.49,368.92C147.49,370.56 148.82,371.88 150.45,371.88L185.3,371.88L185.3,365.95L153.41,365.95Z" style="fill:rgb(0,51,161);fill-rule:nonzero;"/>
                <path d="M152.63,379.68C150.99,379.68 149.67,381.01 149.67,382.64C149.67,384.28 151,385.6 152.63,385.6L185.29,385.6L185.29,379.67L152.63,379.67L152.63,379.68Z" style="fill:rgb(0,51,161);fill-rule:nonzero;"/>
                <path d="M174.59,394C172.95,394 171.63,395.33 171.63,396.96L171.63,421.4L158.4,421.4C156.98,421.4 155.67,422.35 155.39,423.75C155.01,425.65 156.45,427.33 158.29,427.33L174.59,427.33C176.23,427.33 177.55,426 177.55,424.37L177.55,399.93L185.29,399.93L185.29,394L174.59,394Z" style="fill:rgb(0,51,161);fill-rule:nonzero;"/>
                <path d="M244.2,315.41L244.2,338.38C246.07,338.03 248.04,337.77 250.13,337.59L250.13,312.18C248.14,313.21 246.16,314.29 244.2,315.41Z" style="fill:rgb(0,51,161);fill-rule:nonzero;"/>
                <path d="M444.02,314.47C444.02,310.49 441.91,306.75 438.51,304.71C423.4,295.44 406.77,288.18 389.08,283.13C371.62,278.29 353.66,275.83 335.68,275.83C317.6,275.83 299.6,278.28 282.16,283.12C264.45,288.18 247.8,295.45 232.67,304.73C229.35,306.72 227.3,310.28 227.19,314.27C226.94,324.37 227.48,334.45 228.79,344.43C230.56,343.21 232.53,342.14 234.67,341.22C233.61,332.31 233.19,323.35 233.43,314.43C233.45,312.65 234.33,311.05 235.85,310.04L235.96,309.97C251.11,300.75 267.22,293.77 283.83,289.21C300.31,284.48 317.76,282.08 335.68,282.08C353.51,282.08 370.89,284.47 387.34,289.2C403.98,293.76 420.1,300.76 435.26,309.98L435.38,310.05C436.84,311.02 437.76,312.75 437.78,314.56C438.23,331.79 436.25,349.18 431.87,366.23C427.49,383.28 420.86,399.54 412.18,414.56C403.53,429.66 392.73,443.58 380.06,455.93C367.84,468.01 353.75,478.47 338.2,487.02L338.09,487.08C336.39,487.93 334.44,487.88 332.92,486.97L332.9,486.96C317.4,478.42 303.37,467.99 291.19,455.96C283.68,448.64 276.75,440.6 270.44,431.97L262.75,431.87C269.81,442.06 277.81,451.63 286.71,460.43C299.67,472.95 314.23,483.74 330,492.51C331.73,493.39 333.67,493.86 335.62,493.86C337.57,493.86 339.49,493.4 341.21,492.52C356.99,483.75 371.56,472.96 384.5,460.45C397.44,447.65 408.54,433.27 417.48,417.69C426.76,401.68 433.63,384.89 437.91,367.79C442.4,350.5 444.46,332.56 444.02,314.47Z" style="fill:rgb(147,213,0);fill-rule:nonzero;"/>
            </g>
            <path d="M191.84,335.61L191.84,315.67L213.26,315.67L213.26,335.61L191.84,335.61ZM191.84,426.39L191.84,345.33L213.26,345.33L213.26,426.39L191.84,426.39Z" style="fill:rgb(0,51,161);fill-rule:nonzero;"/>
            <g>
                <g>
                    <path d="M256.61,391.46C250.46,392.67 246.23,394.21 243.92,396.07C241.61,397.94 240.46,400.63 240.46,404.14C240.46,410.18 243.92,413.2 250.84,413.2C253.58,413.2 256.14,412.73 258.5,411.8C260.86,410.87 262.89,409.6 264.6,408.01C266.3,406.42 267.67,404.55 268.72,402.41C269.76,400.27 270.29,397.99 270.29,395.57L270.45,386.67C269.35,387.77 267.76,388.65 265.67,389.31C263.58,389.98 260.56,390.69 256.61,391.46Z" style="fill:none;fill-rule:nonzero;"/>
                    <path d="M277.58,396.02L277.58,378.42C277.58,374.72 280.15,371.61 283.59,370.77L283.59,366.06C283.59,362.65 284.92,359.38 287.35,356.86C287.52,356.69 287.7,356.55 287.87,356.39C286.86,354.58 285.64,352.95 284.2,351.51C281.51,348.82 277.94,346.76 273.49,345.33C269.04,343.9 263.63,343.19 257.26,343.19C250.78,343.19 245.29,343.88 240.78,345.25C236.27,346.62 232.62,348.57 229.82,351.1C227.02,353.63 224.99,356.65 223.72,360.16C222.46,363.68 221.77,367.52 221.66,371.69L241.6,371.69C242.15,368.07 243.49,365.16 245.64,362.96C247.78,360.76 251.32,359.66 256.27,359.66C260.44,359.66 263.77,360.4 266.24,361.88C268.71,363.36 269.95,365.42 269.95,368.06C269.95,370.92 269.02,372.98 267.15,374.24C265.28,375.5 261.66,376.52 256.28,377.29C250.9,378.06 245.93,378.91 241.37,379.84C236.81,380.77 232.88,382.23 229.59,384.21C226.29,386.19 223.71,388.91 221.85,392.37C219.98,395.83 219.05,400.47 219.05,406.29C219.05,412.88 221.22,418.24 225.56,422.35C229.9,426.47 236.74,428.53 246.07,428.53C251.56,428.53 256.39,427.68 260.57,425.98C264.74,424.28 268.09,422 270.62,419.14C270.84,421.89 271.28,424.3 271.94,426.39L291.88,426.39L291.88,403.89L285.47,403.89C281.12,403.89 277.58,400.36 277.58,396.02ZM270.28,395.58C270.28,398 269.76,400.28 268.71,402.42C267.66,404.56 266.29,406.43 264.59,408.02C262.89,409.61 260.85,410.88 258.49,411.81C256.13,412.74 253.57,413.21 250.83,413.21C243.91,413.21 240.45,410.19 240.45,404.15C240.45,400.64 241.6,397.95 243.91,396.08C246.22,394.21 250.44,392.68 256.6,391.47C260.55,390.7 263.57,389.99 265.66,389.33C267.75,388.67 269.34,387.79 270.44,386.69L270.28,395.58Z" style="fill:rgb(0,51,161);fill-rule:nonzero;"/>
                    <path d="M366.34,360.48L366.34,345.32L321.53,345.32L321.53,319.94L300.44,319.94L300.44,353.6C302.45,354.22 304.31,355.32 305.8,356.82C308.25,359.27 309.6,362.55 309.6,366.06L309.6,370.77C313.05,371.61 315.61,374.72 315.61,378.42L315.61,396.02C315.61,400.36 312.08,403.89 307.74,403.89L301.15,403.89C301.43,405.43 301.8,406.94 302.25,408.43C303.46,412.38 305.41,415.84 308.1,418.81C310.79,421.78 314.22,424.14 318.4,425.89C322.57,427.65 327.63,428.53 333.56,428.53C339.27,428.53 344.19,427.65 348.31,425.89C352.43,424.13 355.83,421.75 358.53,418.72C361.22,415.7 363.2,412.24 364.46,408.34C365.72,404.44 366.35,400.35 366.35,396.07L366.35,373L346.4,373L346.4,394.09C346.4,399.14 345.38,403.04 343.35,405.79C341.32,408.54 338.16,409.91 333.88,409.91C329.49,409.91 326.33,408.51 324.41,405.71C322.49,402.91 321.53,398.93 321.53,393.76L321.53,360.48L366.34,360.48Z" style="fill:rgb(0,51,161);fill-rule:nonzero;"/>
                </g>
                <path d="M306.88,373.26L306.88,366.05C306.88,363.2 305.78,360.63 303.88,358.73C302.05,356.9 299.41,355.73 296.63,355.73C293.78,355.73 291.14,356.9 289.31,358.73C287.48,360.63 286.31,363.2 286.31,366.05L286.31,373.26L285.46,373.26C282.61,373.26 280.3,375.57 280.3,378.42L280.3,396.02C280.3,398.87 282.61,401.18 285.46,401.18L307.74,401.18C310.59,401.18 312.9,398.87 312.9,396.02L312.9,378.42C312.9,375.57 310.59,373.26 307.74,373.26L306.88,373.26ZM298.9,387.5L301.24,394.6L291.94,394.6L294.28,387.5L294.35,387.13C292.52,386.32 291.28,384.49 291.28,382.3C291.28,379.37 293.62,376.96 296.62,376.96C299.55,376.96 301.89,379.38 301.89,382.3C301.89,384.5 300.65,386.33 298.82,387.13L298.9,387.5ZM303.29,373.26L289.89,373.26L289.89,366.05C289.89,364.22 290.62,362.54 291.87,361.29C293.04,360.05 294.72,359.31 296.63,359.31C298.46,359.31 300.14,360.04 301.39,361.29C302.56,362.53 303.29,364.22 303.29,366.05L303.29,373.26Z" style="fill:rgb(147,213,0);fill-rule:nonzero;"/>
            </g>
            <g>
                <path d="M191.15,440.57L191.15,447.4L267.89,447.4C265.99,445.16 264.14,442.89 262.35,440.57L191.15,440.57Z" style="fill:rgb(0,51,161);fill-rule:nonzero;"/>
            </g>
            <g>
                <path d="M278.18,258.88L289.26,258.88C290.9,258.88 292.22,257.55 292.22,255.92C292.22,254.28 290.89,252.96 289.26,252.96L275.21,252.96C273.57,252.96 272.25,254.29 272.25,255.92L272.25,281.22C274.21,280.57 276.19,279.94 278.18,279.35L278.18,258.88Z" style="fill:rgb(0,51,161);fill-rule:nonzero;"/>
                <path d="M264.45,258.11C264.45,256.47 263.12,255.15 261.49,255.15C259.85,255.15 258.53,256.48 258.53,258.11L258.53,286.31C260.49,285.5 262.46,284.72 264.46,283.97L264.46,258.11L264.45,258.11Z" style="fill:rgb(0,51,161);fill-rule:nonzero;"/>
                <path d="M250.13,281.24C250.13,279.6 248.8,278.28 247.17,278.28L230.8,278.28L230.8,269.13C230.8,267.49 229.47,266.17 227.84,266.17C226.2,266.17 224.88,267.5 224.88,269.13L224.88,281.24C224.88,282.88 226.21,284.2 227.84,284.2L244.21,284.2L244.21,292.87C246.16,291.88 248.14,290.92 250.14,289.99L250.14,281.24L250.13,281.24Z" style="fill:rgb(0,51,161);fill-rule:nonzero;"/>
                <path d="M230.23,300.66C232.17,299.47 234.14,298.31 236.13,297.18L191.84,297.18L191.84,304.29L226.06,304.29C227.21,302.86 228.61,301.63 230.23,300.66Z" style="fill:rgb(0,51,161);fill-rule:nonzero;"/>
            </g>
            <g>
                <path d="M214.93,463.05L182.02,463.05C180.38,463.05 179.06,464.38 179.06,466.01C179.06,467.64 180.39,468.97 182.02,468.97L217.89,468.97C219.53,468.97 220.85,467.64 220.85,466.01L220.85,454.59L214.92,454.59L214.92,463.05L214.93,463.05Z" style="fill:rgb(0,51,161);fill-rule:nonzero;"/>
                <path d="M228.67,482.14L217.59,482.14C215.95,482.14 214.63,483.47 214.63,485.1C214.63,486.74 215.96,488.06 217.59,488.06L231.64,488.06C233.28,488.06 234.6,486.73 234.6,485.1L234.6,454.58L228.67,454.58L228.67,482.14Z" style="fill:rgb(0,51,161);fill-rule:nonzero;"/>
                <path d="M242.4,482.91C242.4,484.55 243.73,485.87 245.36,485.87C247,485.87 248.32,484.54 248.32,482.91L248.32,454.58L242.39,454.58L242.39,482.91L242.4,482.91Z" style="fill:rgb(0,51,161);fill-rule:nonzero;"/>
                <path d="M256.72,454.59L256.72,469.94C256.72,471.58 258.05,472.9 259.68,472.9L276.05,472.9L276.05,482.05C276.05,483.69 277.38,485.01 279.01,485.01C280.65,485.01 281.97,483.68 281.97,482.05L281.97,469.94C281.97,468.3 280.64,466.98 279.01,466.98L262.64,466.98L262.64,454.59L256.72,454.59Z" style="fill:rgb(0,51,161);fill-rule:nonzero;"/>
            </g>
            <g>
                <g id="XMLID_00000014596832918028214210000018441378655092940194_">
                    <g id="XMLID_00000067227816997487845910000005857628300689759914_">
                        <path id="XMLID_00000054252339165660124040000006396077882952498621_" d="M161.76,313.42C161.76,308.97 165.38,305.35 169.83,305.35C174.28,305.35 177.9,308.97 177.9,313.42C177.9,317.87 174.28,321.49 169.83,321.49C165.38,321.49 161.76,317.87 161.76,313.42Z" style="fill:rgb(147,213,0);fill-rule:nonzero;"/>
                    </g>
                </g>
                <g id="XMLID_00000153675169096431513600000006792474855600104371_">
                    <g id="XMLID_00000146464966171224208210000004038736097739429266_">
                        <path id="XMLID_00000106123492236677317690000014748798912762555829_" d="M142.28,346.75C142.28,342.3 145.9,338.68 150.35,338.68C154.8,338.68 158.42,342.3 158.42,346.75C158.42,351.2 154.8,354.82 150.35,354.82C145.9,354.82 142.28,351.2 142.28,346.75Z" style="fill:rgb(147,213,0);fill-rule:nonzero;"/>
                    </g>
                </g>
                <g id="XMLID_00000169553212593747531760000010196879268042863033_">
                    <g id="XMLID_00000145778681339922061400000016906394620928540586_">
                        <path id="XMLID_00000052789380433619996140000010016876990817494432_" d="M138.51,382.92C138.51,378.47 142.13,374.85 146.58,374.85C151.03,374.85 154.65,378.47 154.65,382.92C154.65,387.37 151.03,390.99 146.58,390.99C142.13,390.99 138.51,387.37 138.51,382.92Z" style="fill:rgb(147,213,0);fill-rule:nonzero;"/>
                    </g>
                </g>
                <g id="XMLID_00000006706646393177957050000004690122630550972547_">
                    <g id="XMLID_00000040558054301020870330000003421833058947871383_">
                        <path id="XMLID_00000072240997465733179340000015271969404763176887_" d="M144.09,424.97C143.42,419.7 147.87,415.25 153.14,415.92C156.73,416.38 159.63,419.28 160.09,422.87C160.76,428.14 156.31,432.59 151.04,431.92C147.45,431.46 144.54,428.56 144.09,424.97Z" style="fill:rgb(147,213,0);fill-rule:nonzero;"/>
                    </g>
                </g>
                <g id="XMLID_00000012442889241421068500000004635798138515387267_">
                    <g id="XMLID_00000107562761161263483180000003207278784725757331_">
                        <path id="XMLID_00000016046055383830096230000017157690229948073903_" d="M297.38,247.76C301.83,247.76 305.45,251.38 305.45,255.83C305.45,260.28 301.83,263.9 297.38,263.9C292.93,263.9 289.31,260.28 289.31,255.83C289.31,251.38 292.93,247.76 297.38,247.76Z" style="fill:rgb(147,213,0);fill-rule:nonzero;"/>
                    </g>
                </g>
                <g id="XMLID_00000128474396956462300940000013288694935010512057_">
                    <g id="XMLID_00000160881865397921651330000012080922581466663091_">
                        <path id="XMLID_00000126282447291201201090000014653029758390629796_" d="M261.21,243.99C265.66,243.99 269.28,247.61 269.28,252.06C269.28,256.51 265.66,260.13 261.21,260.13C256.76,260.13 253.14,256.51 253.14,252.06C253.14,247.61 256.76,243.99 261.21,243.99Z" style="fill:rgb(147,213,0);fill-rule:nonzero;"/>
                    </g>
                </g>
                <g id="XMLID_00000157268684006583669390000016008913805145629594_">
                    <g id="XMLID_00000002380453585722538800000017781806070974960558_">
                        <path id="XMLID_00000016067776587639094850000012228190751470046102_" d="M228.28,254.87C232.73,254.87 236.35,258.49 236.35,262.94C236.35,267.39 232.73,271.01 228.28,271.01C223.83,271.01 220.21,267.39 220.21,262.94C220.21,258.49 223.83,254.87 228.28,254.87Z" style="fill:rgb(147,213,0);fill-rule:nonzero;"/>
                    </g>
                </g>
                <g id="XMLID_00000093135293060839241990000001282262784854053516_">
                    <g id="XMLID_00000057140573284100293990000008614485189540945309_">
                        <path id="XMLID_00000103963880065749930350000004736904966519359365_" d="M174.7,474.19C170.25,474.19 166.63,470.57 166.63,466.12C166.63,461.67 170.25,458.05 174.7,458.05C179.15,458.05 182.77,461.67 182.77,466.12C182.77,470.57 179.15,474.19 174.7,474.19Z" style="fill:rgb(147,213,0);fill-rule:nonzero;"/>
                    </g>
                </g>
                <g id="XMLID_00000072264630432538236760000000615933661864939410_">
                    <g id="XMLID_00000174585174658453985320000000476384817030816904_">
                        <path id="XMLID_00000009570780902353296430000000844266214199824035_" d="M209.47,493.27C205.02,493.27 201.4,489.65 201.4,485.2C201.4,480.75 205.02,477.13 209.47,477.13C213.92,477.13 217.54,480.75 217.54,485.2C217.54,489.65 213.92,493.27 209.47,493.27Z" style="fill:rgb(147,213,0);fill-rule:nonzero;"/>
                    </g>
                </g>
                <g id="XMLID_00000162332771589633737460000012618450806630655385_">
                    <g id="XMLID_00000125580100484863652560000014111007308549924776_">
                        <path id="XMLID_00000053503689781385304650000002555213493984574618_" d="M245.64,497.03C241.19,497.03 237.57,493.41 237.57,488.96C237.57,484.51 241.19,480.89 245.64,480.89C250.09,480.89 253.71,484.51 253.71,488.96C253.71,493.41 250.09,497.03 245.64,497.03Z" style="fill:rgb(147,213,0);fill-rule:nonzero;"/>
                    </g>
                </g>
                <g id="XMLID_00000113310652521886093690000014197303092389223087_">
                    <g id="XMLID_00000003814717441405886120000004325547088455803560_">
                        <path id="XMLID_00000031208999306409986200000015141505050779133363_" d="M278.56,496.31C274.11,496.31 270.49,492.69 270.49,488.24C270.49,483.79 274.11,480.17 278.56,480.17C283.01,480.17 286.63,483.79 286.63,488.24C286.63,492.69 283.01,496.31 278.56,496.31Z" style="fill:rgb(147,213,0);fill-rule:nonzero;"/>
                    </g>
                </g>
            </g>
        </g>
    </g>
</svg>
