<svg width="250" height="250" viewBox="0 0 250 250" fill="none" xmlns="http://www.w3.org/2000/svg">
<path d="M125 4C100.821 4 81.1188 5.29033 65.2035 8.82737C49.2428 12.3745 36.8469 18.2342 27.5405 27.5405C18.2342 36.8469 12.3745 49.2428 8.82737 65.2035C5.29033 81.1188 4 100.821 4 125C4 149.179 5.29033 168.881 8.82737 184.796C12.3745 200.757 18.2342 213.153 27.5405 222.459C36.8469 231.766 49.2428 237.625 65.2035 241.173C81.1188 244.71 100.821 246 125 246C149.179 246 168.881 244.71 184.796 241.173C200.757 237.625 213.153 231.766 222.459 222.459C231.766 213.153 237.625 200.757 241.173 184.796C244.71 168.881 246 149.179 246 125C246 100.821 244.71 81.1188 241.173 65.2035C237.625 49.2428 231.766 36.8469 222.459 27.5405C213.153 18.2342 200.757 12.3745 184.796 8.82737C168.881 5.29033 149.179 4 125 4Z" stroke="black" stroke-width="8"/>
</svg>
