<svg width="876" height="876" viewBox="0 0 876 876" fill="none" xmlns="http://www.w3.org/2000/svg">
<rect width="418.04" height="418.04" transform="matrix(0.968259 -0.249951 -0.260695 0.965421 270.1 280.9)" fill="#2D6000"/>
<path d="M317.533 610.41C287.169 618.248 273.78 607.119 269.943 590.506L305.886 563.876C309.004 572.879 312.018 580.399 325.031 577.04C337.502 573.821 346.678 566.925 351.788 548.003L386.533 419.332L424.489 409.534L389.598 538.746C379.013 577.942 351.151 601.732 317.533 610.41ZM388.391 589.855L519.528 383.491L522.782 382.651L557.023 546.324L517.17 556.612L514.115 538.037L439.288 557.353L424.992 580.407L388.391 589.855ZM460.57 522.436L509.1 509.909L504.428 481.441C502.51 469.865 502.218 451.331 502.218 451.331C502.218 451.331 491.394 472.734 482.468 487.109L460.57 522.436Z" fill="black"/>
<path d="M161 685L565.612 576.585L594 607L170.204 719.35L161 685Z" fill="#D9D9D9"/>
<path d="M564.21 581.31L672.946 176.103L696.018 208.556L594 607L564.21 581.31Z" fill="#D9D9D9"/>
</svg>
