<svg version="1.1" id="Layer_1" xmlns="http://www.w3.org/2000/svg" xmlns:xlink="http://www.w3.org/1999/xlink" x="0px" y="0px"
	 width="100%" viewBox="0 0 500 500" enable-background="new 0 0 500 500" xml:space="preserve" class="w-10 h-10 fill-current text-gray-500" itemprop="logo">
<path fill="#FEFEFF" opacity="0" stroke="none" 
	d="
M274.000000,501.000000 
	C182.666687,501.000000 91.833374,501.000000 1.000049,501.000000 
	C1.000032,334.333405 1.000032,167.666794 1.000016,1.000138 
	C167.666565,1.000092 334.333130,1.000092 500.999756,1.000046 
	C500.999847,167.666519 500.999847,334.333038 500.999939,500.999786 
	C425.500000,501.000000 350.000000,501.000000 274.000000,501.000000 
M367.952209,296.440308 
	C397.980988,260.890747 411.328156,220.162552 405.068970,173.766663 
	C398.293457,123.543602 372.686554,85.039116 329.325012,59.335670 
	C263.674896,20.420198 179.715942,35.572117 131.113785,94.484566 
	C101.415726,130.482666 89.669846,172.077484 97.380760,218.093597 
	C106.148071,270.414001 134.848831,308.878601 182.092438,333.368286 
	C185.272400,335.016663 188.298416,337.259460 190.846680,339.780975 
	C208.021637,356.775665 225.030121,373.938416 242.132431,391.006744 
	C248.286209,397.148346 254.117844,397.105927 260.265259,390.934631 
	C277.552368,373.580322 294.786346,356.173004 312.115723,338.861115 
	C313.963837,337.014862 316.120209,335.293121 318.443481,334.135620 
	C337.137726,324.821533 353.617523,312.633026 367.952209,296.440308 
M354.536804,378.891815 
	C358.292328,379.619965 362.149811,380.018707 365.782715,381.143036 
	C374.013306,383.690308 382.271240,386.254333 390.245575,389.484283 
	C394.911407,391.374207 399.267334,394.798584 399.317474,400.443298 
	C399.369080,406.249847 394.650635,409.205688 390.004639,411.051025 
	C382.323303,414.101990 374.509674,417.118195 366.477142,418.934204 
	C334.994232,426.052063 302.924713,428.193695 270.760925,428.894043 
	C225.218735,429.885773 179.818909,428.422272 135.040070,418.966248 
	C125.120605,416.871521 115.211571,414.350861 107.000465,407.908295 
	C100.930298,403.145538 100.717422,396.941925 106.971306,392.556335 
	C111.519936,389.366516 116.755203,386.823975 122.042648,385.078003 
	C143.049652,378.141266 164.940918,376.011841 186.824799,374.040588 
	C195.182404,373.287781 203.562622,372.785828 213.136978,372.080872 
	C205.927368,364.966461 199.605469,358.610535 193.101746,352.446411 
	C192.203873,351.595428 190.381165,351.320740 189.027451,351.408569 
	C155.106094,353.610260 121.304688,356.743713 88.420349,366.022034 
	C76.047180,369.513153 64.017273,373.959747 53.984543,382.363953 
	C41.172131,393.096588 41.109581,408.678253 54.684731,418.313080 
	C62.568455,423.908417 71.490326,428.595856 80.610443,431.794739 
	C113.583961,443.360199 148.103012,446.649445 182.687637,448.920715 
	C221.294998,451.456146 259.945343,451.814575 298.605743,450.000824 
	C334.234863,448.329193 369.757599,445.709198 404.499298,436.960388 
	C419.858612,433.092590 434.953766,428.397919 447.651886,418.305267 
	C454.316010,413.008575 458.283875,406.412079 456.991272,397.535461 
	C455.965454,390.490936 451.767303,385.384827 446.366150,381.230255 
	C436.446625,373.600128 424.945526,369.288727 413.046600,365.932190 
	C380.314880,356.698822 346.678375,353.631592 312.929840,351.384766 
	C311.701263,351.302948 310.023834,351.426910 309.243713,352.173767 
	C302.677399,358.459930 296.271729,364.913940 289.810608,371.324493 
	C311.459351,373.845154 332.568817,376.303009 354.536804,378.891815 
M391.127350,398.546539 
	C384.639221,395.706055 378.388245,391.966003 371.621613,390.181732 
	C343.293610,382.712128 314.201263,380.709045 285.071167,379.367218 
	C283.381042,379.289368 281.243164,380.317566 279.960602,381.520721 
	C274.858704,386.306641 270.037781,391.390778 265.067841,396.319061 
	C256.423889,404.890625 245.978302,404.942657 237.286942,396.441498 
	C232.283249,391.547363 227.460983,386.461029 222.319122,381.719147 
	C220.915192,380.424408 218.615692,379.303650 216.785904,379.387329 
	C189.157425,380.651031 161.560196,382.507935 134.588348,389.105713 
	C127.073814,390.943939 119.746078,393.849335 112.652946,396.988770 
	C108.628952,398.769836 108.686157,401.348053 112.534637,403.535248 
	C116.537025,405.809937 120.864861,407.748474 125.285301,409.012390 
	C152.505402,416.795380 180.493454,419.942230 208.630081,420.784973 
	C236.748795,421.627136 264.973724,422.117950 293.037781,420.620422 
	C317.222443,419.329926 341.296661,415.368866 365.311768,411.851654 
	C372.908691,410.739044 380.233124,407.452484 387.518524,404.723694 
	C389.609283,403.940613 393.027161,402.970306 391.127350,398.546539 
z"/>
<path fill="#022567" opacity="1.000000" stroke="none" 
	d="
M367.707886,296.694946 
	C353.617523,312.633026 337.137726,324.821533 318.443481,334.135620 
	C316.120209,335.293121 313.963837,337.014862 312.115723,338.861115 
	C294.786346,356.173004 277.552368,373.580322 260.265259,390.934631 
	C254.117844,397.105927 248.286209,397.148346 242.132431,391.006744 
	C225.030121,373.938416 208.021637,356.775665 190.846680,339.780975 
	C188.298416,337.259460 185.272400,335.016663 182.092438,333.368286 
	C134.848831,308.878601 106.148071,270.414001 97.380760,218.093597 
	C89.669846,172.077484 101.415726,130.482666 131.113785,94.484566 
	C179.715942,35.572117 263.674896,20.420198 329.325012,59.335670 
	C372.686554,85.039116 398.293457,123.543602 405.068970,173.766663 
	C411.328156,220.162552 397.980988,260.890747 367.707886,296.694946 
M264.292633,60.015034 
	C254.811295,60.065014 245.233154,59.263027 235.867081,60.327351 
	C209.510284,63.322430 185.883957,73.382896 165.492706,90.431938 
	C137.420197,113.903275 120.951294,144.004730 117.231903,180.343918 
	C115.376007,198.476410 117.233841,216.650665 122.953117,234.289093 
	C142.729523,295.280121 202.867249,338.083435 273.509796,326.589996 
	C355.823425,313.197662 406.203339,229.285324 378.740082,150.923904 
	C360.092743,97.717056 321.073303,67.846939 264.292633,60.015034 
z"/>
<path fill="#022567" opacity="1.000000" stroke="none" 
	d="
M354.107544,378.826355 
	C332.568817,376.303009 311.459351,373.845154 289.810608,371.324493 
	C296.271729,364.913940 302.677399,358.459930 309.243713,352.173767 
	C310.023834,351.426910 311.701263,351.302948 312.929840,351.384766 
	C346.678375,353.631592 380.314880,356.698822 413.046600,365.932190 
	C424.945526,369.288727 436.446625,373.600128 446.366150,381.230255 
	C451.767303,385.384827 455.965454,390.490936 456.991272,397.535461 
	C458.283875,406.412079 454.316010,413.008575 447.651886,418.305267 
	C434.953766,428.397919 419.858612,433.092590 404.499298,436.960388 
	C369.757599,445.709198 334.234863,448.329193 298.605743,450.000824 
	C259.945343,451.814575 221.294998,451.456146 182.687637,448.920715 
	C148.103012,446.649445 113.583961,443.360199 80.610443,431.794739 
	C71.490326,428.595856 62.568455,423.908417 54.684731,418.313080 
	C41.109581,408.678253 41.172131,393.096588 53.984543,382.363953 
	C64.017273,373.959747 76.047180,369.513153 88.420349,366.022034 
	C121.304688,356.743713 155.106094,353.610260 189.027451,351.408569 
	C190.381165,351.320740 192.203873,351.595428 193.101746,352.446411 
	C199.605469,358.610535 205.927368,364.966461 213.136978,372.080872 
	C203.562622,372.785828 195.182404,373.287781 186.824799,374.040588 
	C164.940918,376.011841 143.049652,378.141266 122.042648,385.078003 
	C116.755203,386.823975 111.519936,389.366516 106.971306,392.556335 
	C100.717422,396.941925 100.930298,403.145538 107.000465,407.908295 
	C115.211571,414.350861 125.120605,416.871521 135.040070,418.966248 
	C179.818909,428.422272 225.218735,429.885773 270.760925,428.894043 
	C302.924713,428.193695 334.994232,426.052063 366.477142,418.934204 
	C374.509674,417.118195 382.323303,414.101990 390.004639,411.051025 
	C394.650635,409.205688 399.369080,406.249847 399.317474,400.443298 
	C399.267334,394.798584 394.911407,391.374207 390.245575,389.484283 
	C382.271240,386.254333 374.013306,383.690308 365.782715,381.143036 
	C362.149811,380.018707 358.292328,379.619965 354.107544,378.826355 
z"/>
<path fill="#022567" opacity="1.000000" stroke="none" 
	d="
M391.373962,398.827637 
	C393.027161,402.970306 389.609283,403.940613 387.518524,404.723694 
	C380.233124,407.452484 372.908691,410.739044 365.311768,411.851654 
	C341.296661,415.368866 317.222443,419.329926 293.037781,420.620422 
	C264.973724,422.117950 236.748795,421.627136 208.630081,420.784973 
	C180.493454,419.942230 152.505402,416.795380 125.285301,409.012390 
	C120.864861,407.748474 116.537025,405.809937 112.534637,403.535248 
	C108.686157,401.348053 108.628952,398.769836 112.652946,396.988770 
	C119.746078,393.849335 127.073814,390.943939 134.588348,389.105713 
	C161.560196,382.507935 189.157425,380.651031 216.785904,379.387329 
	C218.615692,379.303650 220.915192,380.424408 222.319122,381.719147 
	C227.460983,386.461029 232.283249,391.547363 237.286942,396.441498 
	C245.978302,404.942657 256.423889,404.890625 265.067841,396.319061 
	C270.037781,391.390778 274.858704,386.306641 279.960602,381.520721 
	C281.243164,380.317566 283.381042,379.289368 285.071167,379.367218 
	C314.201263,380.709045 343.293610,382.712128 371.621613,390.181732 
	C378.388245,391.966003 384.639221,395.706055 391.373962,398.827637 
z"/>
<path fill="#39B3FB" opacity="1.000000" stroke="none" 
	d="
M264.759705,60.028816 
	C321.073303,67.846939 360.092743,97.717056 378.740082,150.923904 
	C406.203339,229.285324 355.823425,313.197662 273.509796,326.589996 
	C202.867249,338.083435 142.729523,295.280121 122.953117,234.289093 
	C117.233841,216.650665 115.376007,198.476410 117.231903,180.343918 
	C120.951294,144.004730 137.420197,113.903275 165.492706,90.431938 
	C185.883957,73.382896 209.510284,63.322430 235.867081,60.327351 
	C245.233154,59.263027 254.811295,60.065014 264.759705,60.028816 
M126.255287,208.002594 
	C126.551697,210.144775 126.812271,212.292618 127.149681,214.428314 
	C138.393738,285.599091 208.465057,333.088104 278.805603,317.015137 
	C347.081543,301.413910 388.936462,235.369751 374.679840,167.666534 
	C363.154480,112.933929 317.585022,73.789429 265.954132,68.882034 
	C215.025909,64.041412 174.789474,83.217911 145.904312,125.254616 
	C129.028107,149.814606 123.562958,177.593094 126.255287,208.002594 
z"/>
<path fill="#002467" opacity="1.000000" stroke="none" 
	d="
M126.200592,207.544373 
	C123.562958,177.593094 129.028107,149.814606 145.904312,125.254616 
	C174.789474,83.217911 215.025909,64.041412 265.954132,68.882034 
	C317.585022,73.789429 363.154480,112.933929 374.679840,167.666534 
	C388.936462,235.369751 347.081543,301.413910 278.805603,317.015137 
	C208.465057,333.088104 138.393738,285.599091 127.149681,214.428314 
	C126.812271,212.292618 126.551697,210.144775 126.200592,207.544373 
M286.599487,249.030487 
	C304.339325,249.030487 322.079163,249.030487 340.802582,249.030487 
	C339.058746,245.895081 337.822449,243.606232 336.525970,241.351959 
	C328.312256,227.070282 320.166504,212.748276 311.793121,198.560699 
	C310.142548,195.764008 310.028015,193.740463 311.718994,190.881287 
	C320.783081,175.555283 329.611786,160.089981 338.506195,144.663818 
	C339.457428,143.014023 340.307404,141.305817 341.553925,138.969528 
	C338.818207,138.969528 337.016479,138.969528 335.214752,138.969528 
	C317.390778,138.969528 299.566193,138.896027 281.743408,139.040787 
	C278.719940,139.065338 276.949127,138.259277 275.452515,135.525528 
	C270.818390,127.060722 265.886139,118.758858 261.053375,110.403130 
	C257.682800,104.575478 254.285538,98.763260 250.547577,92.338066 
	C242.119965,106.935928 234.025360,120.692764 226.244919,134.625031 
	C224.368591,137.984924 222.280991,139.138092 218.443237,139.071106 
	C203.955261,138.818237 189.460236,138.969528 174.967850,138.969528 
	C170.707275,138.969528 166.446701,138.969528 161.212067,138.969528 
	C162.927917,142.067886 164.153625,144.359116 165.450134,146.609589 
	C173.674210,160.884949 181.832352,175.199539 190.217911,189.379562 
	C191.877945,192.186661 191.933029,194.181366 190.232391,197.038116 
	C182.486572,210.049698 175.020844,223.228271 167.480682,236.361877 
	C165.205292,240.325165 163.014343,244.336945 160.391281,249.030472 
	C163.147430,249.030472 164.939255,249.030457 166.731094,249.030457 
	C184.721649,249.030487 202.712708,249.098404 220.702225,248.961517 
	C223.585876,248.939575 225.243973,249.858810 226.591309,252.349869 
	C229.598724,257.910217 232.844681,263.341919 236.011093,268.815796 
	C241.042603,277.513916 246.088547,286.203705 251.434357,295.424774 
	C259.444031,281.600922 267.309906,268.660370 274.468933,255.339920 
	C277.129517,250.389572 280.125702,247.986206 286.599487,249.030487 
z"/>
<path fill="#39B5FE" opacity="1.000000" stroke="none" 
	d="
M286.119415,249.030487 
	C280.125702,247.986206 277.129517,250.389572 274.468933,255.339920 
	C267.309906,268.660370 259.444031,281.600922 251.434357,295.424774 
	C246.088547,286.203705 241.042603,277.513916 236.011093,268.815796 
	C232.844681,263.341919 229.598724,257.910217 226.591309,252.349869 
	C225.243973,249.858810 223.585876,248.939575 220.702225,248.961517 
	C202.712708,249.098404 184.721649,249.030487 166.731094,249.030457 
	C164.939255,249.030457 163.147430,249.030472 160.391281,249.030472 
	C163.014343,244.336945 165.205292,240.325165 167.480682,236.361877 
	C175.020844,223.228271 182.486572,210.049698 190.232391,197.038116 
	C191.933029,194.181366 191.877945,192.186661 190.217911,189.379562 
	C181.832352,175.199539 173.674210,160.884949 165.450134,146.609589 
	C164.153625,144.359116 162.927917,142.067886 161.212067,138.969528 
	C166.446701,138.969528 170.707275,138.969528 174.967850,138.969528 
	C189.460236,138.969528 203.955261,138.818237 218.443237,139.071106 
	C222.280991,139.138092 224.368591,137.984924 226.244919,134.625031 
	C234.025360,120.692764 242.119965,106.935928 250.547577,92.338066 
	C254.285538,98.763260 257.682800,104.575478 261.053375,110.403130 
	C265.886139,118.758858 270.818390,127.060722 275.452515,135.525528 
	C276.949127,138.259277 278.719940,139.065338 281.743408,139.040787 
	C299.566193,138.896027 317.390778,138.969528 335.214752,138.969528 
	C337.016479,138.969528 338.818207,138.969528 341.553925,138.969528 
	C340.307404,141.305817 339.457428,143.014023 338.506195,144.663818 
	C329.611786,160.089981 320.783081,175.555283 311.718994,190.881287 
	C310.028015,193.740463 310.142548,195.764008 311.793121,198.560699 
	C320.166504,212.748276 328.312256,227.070282 336.525970,241.351959 
	C337.822449,243.606232 339.058746,245.895081 340.802582,249.030487 
	C322.079163,249.030487 304.339325,249.030487 286.119415,249.030487 
M299.786987,187.276337 
	C306.342529,175.884323 312.898071,164.492310 319.927307,152.277100 
	C305.853851,152.277100 293.186615,151.885361 280.560608,152.437027 
	C273.927216,152.726852 270.033844,150.874130 266.993713,144.730316 
	C262.389862,135.426392 256.687958,126.665825 251.101303,117.071091 
	C249.824097,119.012344 248.974487,120.182175 248.249710,121.424843 
	C243.133911,130.196121 237.892242,138.899536 233.023727,147.806610 
	C231.202118,151.139297 229.167679,152.475540 225.246811,152.384521 
	C212.757294,152.094635 200.256775,152.268707 187.760559,152.287781 
	C186.202560,152.290161 184.644791,152.437943 182.522751,152.547470 
	C183.484131,154.465881 184.006958,155.661407 184.657181,156.783081 
	C191.002045,167.728424 197.274887,178.717453 203.788269,189.561890 
	C205.611099,192.596817 205.848831,194.878998 203.881454,198.097000 
	C197.197693,209.029526 190.915268,220.207809 184.516785,231.313660 
	C183.835281,232.496567 183.398560,233.820465 182.566696,235.722946 
	C197.562393,235.722946 211.697952,235.856339 225.827682,235.628906 
	C229.348175,235.572235 231.227890,236.813614 232.864090,239.747589 
	C237.971161,248.905411 243.301010,257.939270 248.578491,267.001404 
	C249.261230,268.173767 250.143600,269.229858 251.258072,270.795898 
	C257.714752,259.741608 263.857971,249.461700 269.717926,239.022766 
	C271.165771,236.443512 272.818268,235.640137 275.636871,235.668167 
	C288.298492,235.794113 300.962067,235.722916 313.624939,235.722855 
	C315.356964,235.722855 317.088989,235.722885 319.552551,235.722885 
	C318.522919,233.619156 318.025116,232.430588 317.386261,231.323410 
	C311.396210,220.942703 305.677124,210.387848 299.242218,200.289566 
	C296.307587,195.684265 295.821350,191.991379 299.786987,187.276337 
z"/>
<path fill="#FDFEFF" opacity="1.000000" stroke="none" 
	d="
M299.585815,187.582581 
	C295.821350,191.991379 296.307587,195.684265 299.242218,200.289566 
	C305.677124,210.387848 311.396210,220.942703 317.386261,231.323410 
	C318.025116,232.430588 318.522919,233.619156 319.552551,235.722885 
	C317.088989,235.722885 315.356964,235.722855 313.624939,235.722855 
	C300.962067,235.722916 288.298492,235.794113 275.636871,235.668167 
	C272.818268,235.640137 271.165771,236.443512 269.717926,239.022766 
	C263.857971,249.461700 257.714752,259.741608 251.258072,270.795898 
	C250.143600,269.229858 249.261230,268.173767 248.578491,267.001404 
	C243.301010,257.939270 237.971161,248.905411 232.864090,239.747589 
	C231.227890,236.813614 229.348175,235.572235 225.827682,235.628906 
	C211.697952,235.856339 197.562393,235.722946 182.566696,235.722946 
	C183.398560,233.820465 183.835281,232.496567 184.516785,231.313660 
	C190.915268,220.207809 197.197693,209.029526 203.881454,198.097000 
	C205.848831,194.878998 205.611099,192.596817 203.788269,189.561890 
	C197.274887,178.717453 191.002045,167.728424 184.657181,156.783081 
	C184.006958,155.661407 183.484131,154.465881 182.522751,152.547470 
	C184.644791,152.437943 186.202560,152.290161 187.760559,152.287781 
	C200.256775,152.268707 212.757294,152.094635 225.246811,152.384521 
	C229.167679,152.475540 231.202118,151.139297 233.023727,147.806610 
	C237.892242,138.899536 243.133911,130.196121 248.249710,121.424843 
	C248.974487,120.182175 249.824097,119.012344 251.101303,117.071091 
	C256.687958,126.665825 262.389862,135.426392 266.993713,144.730316 
	C270.033844,150.874130 273.927216,152.726852 280.560608,152.437027 
	C293.186615,151.885361 305.853851,152.277100 319.927307,152.277100 
	C312.898071,164.492310 306.342529,175.884323 299.585815,187.582581 
z"/>
</svg>